<?xml version="1.0" encoding="utf-8"?>
<svg version="1.1" id="Layer_1"
xmlns="http://www.w3.org/2000/svg"
xmlns:xlink="http://www.w3.org/1999/xlink"
width="550px" height="400px"
xml:space="preserve">
<g id="PathID_1" transform="matrix(0.867298, -0.985829, 1.03407, 0.777389, 339, 122.2)" opacity="1">
<path style="fill:#DBDBDB;fill-opacity:0.14902" d="M-63.5 -236.5L63.5 -236.5Q43.1 -2.3 4.1 233.25L-32.7 219.2L-63.5 -236.5" />
</g>
<g id="PathID_2" transform="matrix(0.867298, -0.985829, 1.03407, 0.777389, 339, 122.2)" opacity="1">
</g>
<g id="PathID_3" transform="matrix(0.867298, -0.985829, 1.2391, 0.931528, 331.75, 188.1)" opacity="1">
<path style="fill:#DBDBDB;fill-opacity:0.14902" d="M-40.6 -243.7L7.05 -237.35L52.85 229.15L9.6 214.2Q-39 -12.1 -40.6 -243.7" />
</g>
<g id="PathID_4" transform="matrix(0.867298, -0.985829, 1.2391, 0.931528, 331.75, 188.1)" opacity="1">
</g>
<g id="PathID_5" transform="matrix(-0.58502, -1.17551, 1.11049, -0.663657, 346.5, 333.35)" opacity="1">
<path style="fill:#DBDBDB;fill-opacity:0.14902" d="M-63.5 -236.5L63.5 -236.5Q43.1 -2.3 4.1 233.25L-32.7 219.2L-63.5 -236.5" />
</g>
<g id="PathID_6" transform="matrix(-0.58502, -1.17551, 1.11049, -0.663657, 346.5, 333.35)" opacity="1">
</g>
</svg>
