<?xml version="1.0" encoding="utf-8"?>
<svg version="1.1" id="Layer_1"
xmlns="http://www.w3.org/2000/svg"
xmlns:xlink="http://www.w3.org/1999/xlink"
width="400px" height="400px"
xml:space="preserve">
<g id="PathID_1" transform="matrix(1.62259, 0, 0, 1.62259, 15.15, 15.9)" opacity="1">
<path style="fill:#F5F5F5;fill-opacity:1" d="M190.8 9.75Q193.15 10.5 195.2 11.85Q197.3 13.2 198.95 15.05Q200.6 16.85 201.5 18.95L222.9 66.15Q223.8 68.2 224.5 70.85Q225.2 73.5 225.65 76.35Q226.1 79.15 226.25 81.9Q226.4 84.65 226.2 86.9L213.95 206.65Q213.7 208.9 212.65 210.85Q211.6 212.8 210 214.3Q208.35 215.75 206.3 216.6Q204.25 217.45 202 217.45L24.35 217.45Q22.1 217.45 20 216.55Q17.95 215.7 16.35 214.25Q14.7 212.8 13.65 210.8Q12.6 208.85 12.4 206.65L0.15 86.9Q-0.1 84.65 0 81.85Q0.15 79.1 0.5 76.25Q0.9 73.4 1.55 70.7Q2.15 68 3 65.95L21.4 19.1Q22.2 17 23.45 15.15Q24.7 13.3 26.15 11.95Q27.65 10.55 29.15 9.75Q30.7 9 32.15 9L34.75 9L36.9 9L38.35 9L38.9 9L186.25 9Q188.5 9 190.8 9.75M152.35 147.7Q154.35 146.85 155.8 145.4Q157.25 143.9 158.1 141.95Q158.95 139.95 158.95 137.75L158.95 113.3Q158.95 111.05 158.05 109.05Q157.2 107.05 155.75 105.6Q154.3 104.15 152.3 103.3Q150.35 102.45 148.1 102.45L78.35 102.45Q76.1 102.45 74.1 103.3Q72.1 104.15 70.65 105.6Q69.2 107.05 68.35 109.05Q67.5 111.05 67.5 113.3L67.5 137.75Q67.5 140 68.35 141.95Q69.2 143.95 70.65 145.4Q72.1 146.85 74.1 147.7Q76.1 148.6 78.35 148.6L148.15 148.6Q150.4 148.6 152.35 147.7M28.25 72.5Q28.45 74.35 29.5 75.75Q30.5 77.15 32.2 77.95Q33.9 78.75 36.2 78.75L191.1 78.75Q193.35 78.75 194.95 77.95Q196.55 77.15 197.45 75.8Q198.3 74.45 198.35 72.65Q198.4 70.85 197.5 68.85L188.15 47.95Q187.2 45.85 185.55 44.05Q183.9 42.25 181.8 40.9Q179.75 39.55 177.4 38.8Q175.1 38.05 172.85 38.05L50 38.05Q47.75 38.05 45.45 38.85Q43.2 39.65 41.25 41.05Q39.3 42.4 37.85 44.3Q36.35 46.15 35.65 48.3L28.8 68.5Q28.05 70.6 28.25 72.5" />
</g>
<g id="PathID_2" transform="matrix(1.62259, 0, 0, 1.62259, 15.15, 15.9)" opacity="1">
</g>
</svg>
