<?xml version="1.0" encoding="utf-8"?>
<svg version="1.1" id="Layer_1"
xmlns="http://www.w3.org/2000/svg"
xmlns:xlink="http://www.w3.org/1999/xlink"
width="373px" height="373px"
xml:space="preserve">
<filter id="filter3" x="-0.529762" y="-0.529762" width="2.24537" height="2.24543" >
<feComponentTransfer in="SourceGraphic">
	<feFuncR type="linear" slope="0"/>
	<feFuncG type="linear" slope="0"/>
	<feFuncB type="linear" slope="0"/>
</feComponentTransfer>
<feGaussianBlur stdDeviation="1 1" />
<feOffset dx="2.12135" dy="2.12129"/>
<feComponentTransfer result="1">
	<feFuncR type="linear" Ue="0" intercept="0"/>
	<feFuncG type="linear" Ue="0" intercept="0"/>
	<feFuncB type="linear" Ue="0" intercept="0"/>
	<feFuncA type="linear" xh="0" slope="0.398438"/>
</feComponentTransfer>
<feComposite result="2"  in="SourceGraphic" in2="1" operator="over"/>
</filter>
<g style="filter:url(#filter3);">
<g id="PathID_1" transform="matrix(0.389978, 0, 0, 0.389978, 4.3, 4.6)" opacity="1">
<path style="fill:#0051A6;fill-opacity:1" d="M22.45 336.95Q17.65 336.35 13.55 334.15Q9.45 332 6.45 328.6Q3.45 325.25 1.75 320.95Q0.05 316.65 0.05 311.85L0.05 252.15Q0.05 247.35 1.75 243Q3.45 238.7 6.45 235.35Q9.45 231.95 13.55 229.8Q17.65 227.6 22.45 227.05L59.25 222.85Q60.95 215.95 63.1 209.15Q65.3 202.4 67.9 195.8Q70.5 189.2 73.55 182.8Q76.6 176.35 80.05 170.15L57.05 141.05Q54.05 137.25 52.65 132.8Q51.3 128.35 51.55 123.85Q51.8 119.35 53.65 115.1Q55.5 110.85 58.95 107.45L101.15 65.25Q104.55 61.85 108.8 60Q113.05 58.15 117.55 57.9Q122.05 57.65 126.5 59Q130.95 60.35 134.75 63.35L162.25 85.15Q168.85 81.2 175.65 77.7Q182.5 74.25 189.55 71.3Q196.6 68.3 203.85 65.8Q211.1 63.3 218.55 61.35L222.55 27.05Q223.1 22.25 225.3 18.15Q227.45 14.05 230.85 11.05Q234.2 8.05 238.5 6.35Q242.85 4.65 247.65 4.65L307.35 4.65Q312.15 4.65 316.45 6.35Q320.75 8.05 324.1 11.05Q327.5 14.05 329.65 18.15Q331.85 22.25 332.45 27.05L336.45 61.35Q343.65 63.3 350.75 65.7Q357.8 68.1 364.65 71Q371.55 73.85 378.2 77.2Q384.9 80.55 391.35 84.35L417.85 63.35Q421.6 60.35 426.05 58.95Q430.5 57.6 435 57.85Q439.5 58.1 443.75 59.95Q448 61.8 451.45 65.25L493.55 107.35Q496.9 110.75 498.75 115Q500.6 119.25 500.85 123.75Q501.1 128.25 499.75 132.7Q498.45 137.15 495.45 140.95L473.85 168.25Q477.25 174.4 480.3 180.75Q483.35 187.1 486.05 193.6Q488.7 200.15 490.95 206.85Q493.2 213.55 495 220.45L530.1 224.55Q534.9 225.1 539 227.3Q543.1 229.45 546.1 232.85Q549.1 236.2 550.8 240.5Q552.5 244.85 552.5 249.65L552.5 309.35Q552.5 314.15 550.8 318.45Q549.1 322.75 546.1 326.1Q543.1 329.5 539 331.65Q534.9 333.85 530.1 334.45L494.5 338.55Q492.6 345.45 490.25 352.25Q487.95 359.05 485.15 365.65Q482.4 372.25 479.2 378.65Q476 385.1 472.4 391.35L495.5 420.65Q498.5 424.4 499.85 428.85Q501.2 433.3 500.95 437.8Q500.7 442.3 498.85 446.55Q497 450.8 493.6 454.25L451.4 496.45Q447.95 499.8 443.7 501.65Q439.45 503.5 434.95 503.75Q430.45 504 426 502.65Q421.55 501.35 417.8 498.35L388.1 474.85Q381.75 478.4 375.2 481.55Q368.65 484.7 361.95 487.4Q355.2 490.1 348.3 492.4Q341.45 494.7 334.4 496.55L330 534.65Q329.4 539.45 327.2 543.55Q325.05 547.65 321.65 550.65Q318.3 553.65 314 555.35Q309.7 557.05 304.9 557.05L245.2 557.05Q240.4 557.05 236.05 555.35Q231.75 553.65 228.4 550.65Q225 547.65 222.85 543.55Q220.65 539.45 220.1 534.65L215.5 495.15Q208.9 493.25 202.5 491Q196.05 488.7 189.8 486.05Q183.5 483.4 177.4 480.35Q171.3 477.35 165.4 473.95L134.7 498.25Q130.9 501.25 126.45 502.6Q122 503.95 117.5 503.7Q113 503.45 108.75 501.65Q104.5 499.8 101.1 496.4L58.9 454.2Q55.5 450.75 53.65 446.5Q51.8 442.25 51.55 437.75Q51.3 433.25 52.65 428.8Q54 424.35 57 420.6L81.5 389.7Q78.25 384 75.35 378.1Q72.5 372.2 69.95 366.2Q67.4 360.15 65.2 353.95Q63 347.8 61.2 341.5L22.45 336.95M239.1 187.75Q221.15 195.5 207.75 208.95Q194.3 222.35 186.55 240.3Q178.8 258.3 178.8 278.7Q178.8 299.1 186.55 317.05Q194.35 335 207.75 348.45Q221.15 361.85 239.1 369.6Q257.1 377.4 277.5 377.4Q297.9 377.4 315.85 369.6Q333.8 361.85 347.25 348.45Q360.65 335 368.4 317.05Q376.2 299.1 376.2 278.7Q376.2 258.3 368.4 240.3Q360.65 222.35 347.25 208.95Q333.8 195.5 315.85 187.75Q297.9 180 277.5 180Q257.1 180 239.1 187.75" />
</g>
<g id="PathID_2" transform="matrix(0.389978, 0, 0, 0.389978, 4.3, 4.6)" opacity="1">
</g>
<g id="PathID_3" transform="matrix(0.389978, 0, 0, 0.389978, 4.3, 4.6)" opacity="1">
<path style="fill:#0051A6;fill-opacity:1" d="M873.45 363.3Q875.65 367.35 876.25 371.8Q876.85 376.2 875.85 380.7Q874.85 385.2 872.15 389.2L858.5 409.8Q861.75 414.6 864.7 419.6Q867.6 424.55 870.25 429.7Q872.85 434.85 875.15 440.2Q877.45 445.5 879.4 451L904.5 451.8Q909.25 451.95 913.45 453.75Q917.65 455.6 920.9 458.65Q924.1 461.75 926.15 465.85Q928.15 469.95 928.6 474.7L932.1 515.8Q932.45 520.5 931.1 524.9Q929.8 529.3 927.1 532.85Q924.4 536.45 920.55 538.95Q916.75 541.45 912.1 542.4L887.1 547.5Q886.05 553.25 884.6 558.95Q883.15 564.65 881.35 570.25Q879.55 575.8 877.35 581.3Q875.2 586.75 872.7 592.1L891 611.45Q894.2 614.9 895.9 619.15Q897.6 623.4 897.75 627.85Q897.85 632.3 896.4 636.65Q894.95 641 891.9 644.65L865.3 676.15Q862.2 679.75 858.15 681.95Q854.1 684.1 849.7 684.75Q845.3 685.35 840.85 684.4Q836.35 683.45 832.4 680.85L809.7 665.85Q804.75 669.15 799.65 672.15Q794.55 675.15 789.25 677.85Q784 680.5 778.5 682.85Q773.05 685.2 767.45 687.2L766.55 714.8Q766.4 719.55 764.55 723.75Q762.75 727.95 759.65 731.2Q756.6 734.4 752.45 736.45Q748.35 738.45 743.65 738.9L702.55 742.4Q697.8 742.75 693.4 741.4Q689 740.1 685.45 737.4Q681.85 734.7 679.35 730.85Q676.85 727.05 675.95 722.4L670.25 694.2Q664.75 693.15 659.35 691.7Q654 690.3 648.7 688.6Q643.4 686.85 638.2 684.8Q633.05 682.75 628 680.4L607.4 699.7Q603.95 702.95 599.65 704.65Q595.4 706.35 590.95 706.45Q586.5 706.6 582.15 705.1Q577.8 703.65 574.2 700.6L542.7 674Q539.05 670.9 536.9 666.85Q534.75 662.85 534.1 658.45Q533.5 654 534.45 649.55Q535.4 645.05 538.05 641.1L553.7 617.4Q550.65 612.9 547.85 608.3Q545.1 603.7 542.6 598.95Q540.1 594.2 537.9 589.3Q535.7 584.4 533.8 579.4L505.7 578.55Q500.9 578.4 496.7 576.55Q492.5 574.75 489.3 571.65Q486.05 568.6 484 564.45Q482 560.35 481.6 555.65L478.1 514.55Q477.7 509.8 479.05 505.4Q480.35 501 483.05 497.45Q485.75 493.85 489.6 491.35Q493.45 488.85 498.1 487.95L524.1 482.65Q525.05 476.9 526.4 471.25Q527.7 465.55 529.4 460Q531.05 454.45 533.1 449Q535.1 443.55 537.5 438.25L519.3 418.9Q516.05 415.45 514.35 411.15Q512.65 406.9 512.55 402.45Q512.4 398 513.9 393.65Q515.35 389.3 518.45 385.7L545.05 354Q548.1 350.35 552.15 348.15Q556.15 346 560.6 345.35Q565 344.75 569.45 345.7Q573.95 346.65 577.95 349.3L598.7 363.1Q603.8 359.4 609.1 356.1Q614.45 352.8 620 349.9Q625.55 346.95 631.3 344.45Q637.05 341.9 643 339.8L643.75 315.4Q643.9 310.6 645.7 306.4Q647.55 302.2 650.6 299Q653.7 295.75 657.8 293.7Q661.9 291.7 666.65 291.3L707.75 287.8Q712.45 287.4 716.85 288.75Q721.25 290.05 724.8 292.75Q728.4 295.45 730.9 299.3Q733.4 303.15 734.35 307.8L739.2 331.8Q745.25 332.85 751.2 334.35Q757.15 335.85 762.95 337.7Q768.75 339.6 774.4 341.85Q780.1 344.1 785.6 346.8L803 330.5Q806.4 327.2 810.65 325.5Q814.9 323.8 819.35 323.7Q823.8 323.55 828.15 325.05Q832.5 326.5 836.15 329.6L867.65 356.2Q871.3 359.25 873.45 363.3M743.55 584.8Q757.65 577.25 767.7 565.4Q777.7 553.55 782.8 538.35Q787.85 523.15 786.45 506.55Q785.05 489.9 777.45 475.75Q769.9 461.6 758.05 451.6Q746.2 441.6 731 436.5Q715.8 431.4 699.15 432.85Q682.5 434.2 668.35 441.8Q654.25 449.35 644.25 461.2Q634.25 473.05 629.15 488.25Q624.05 503.5 625.5 520.15Q626.85 536.75 634.45 550.9Q642 565 653.85 575Q665.7 585 680.9 590.1Q696.15 595.2 712.8 593.8Q729.4 592.4 743.55 584.8" />
</g>
<g id="PathID_4" transform="matrix(0.389978, 0, 0, 0.389978, 4.3, 4.6)" opacity="1">
</g>
<g id="PathID_5" transform="matrix(0.389978, 0, 0, 0.389978, 4.3, 4.6)" opacity="1">
<path style="fill:#0051A6;fill-opacity:1" d="M222.7 702.5Q223.9 697.85 225.4 693.35Q226.9 688.85 228.7 684.45Q230.5 680.1 232.6 675.85Q234.65 671.6 237 667.5L226.3 653.7Q223.35 649.9 222.05 645.5Q220.8 641.1 221.1 636.65Q221.4 632.2 223.3 628.05Q225.15 623.85 228.6 620.55L246.8 602.75Q250.2 599.4 254.4 597.65Q258.65 595.85 263.1 595.65Q267.5 595.45 271.9 596.85Q276.25 598.25 280 601.25L292.5 611.45Q296.9 608.9 301.5 606.65Q306.05 604.4 310.8 602.5Q315.5 600.55 320.35 598.95Q325.2 597.35 330.15 596.1L332.15 580.5Q332.75 575.75 334.95 571.75Q337.15 567.7 340.5 564.8Q343.9 561.85 348.15 560.25Q352.45 558.6 357.25 558.7L382.55 559Q387.3 559 391.55 560.75Q395.8 562.5 399.1 565.5Q402.4 568.5 404.55 572.55Q406.65 576.65 407.15 581.4L408.75 597.1Q413.5 598.45 418.2 600.1Q422.85 601.75 427.45 603.75Q432 605.7 436.4 608Q440.8 610.3 445.1 612.9L457.2 603.6Q460.95 600.65 465.35 599.35Q469.8 598.1 474.25 598.4Q478.65 598.7 482.85 600.6Q487.05 602.45 490.4 605.9L508.05 624Q511.35 627.4 513.15 631.6Q514.9 635.85 515.1 640.3Q515.3 644.7 513.9 649.1Q512.55 653.45 509.55 657.2L499.45 669.6Q501.7 673.7 503.65 677.95Q505.65 682.25 507.35 686.65Q509.05 691 510.5 695.5Q511.9 700 513.1 704.6L529.3 706.7Q534 707.3 538 709.5Q542.05 711.7 544.95 715.1Q547.85 718.45 549.5 722.75Q551.1 727.05 551.05 731.8L550.8 757.1Q550.7 761.85 549 766.1Q547.25 770.35 544.25 773.65Q541.25 776.95 537.15 779.05Q533.1 781.2 528.4 781.7L511.8 783.4Q510.45 788 508.85 792.5Q507.25 797 505.35 801.35Q503.45 805.75 501.25 810Q499.05 814.25 496.6 818.4L507.25 832.25Q510.15 836 511.45 840.45Q512.7 844.85 512.4 849.3Q512.1 853.75 510.2 857.9Q508.35 862.1 504.95 865.45L486.85 883.15Q483.4 886.45 479.2 888.25Q474.95 890 470.55 890.2Q466.1 890.4 461.7 889Q457.35 887.65 453.65 884.65L439.65 873.35Q435.35 875.65 430.95 877.7Q426.6 879.75 422.1 881.5Q417.6 883.25 412.95 884.7Q408.35 886.15 403.65 887.35L401.35 905.55Q400.75 910.25 398.5 914.3Q396.3 918.3 392.9 921.25Q389.55 924.15 385.25 925.8Q380.95 927.4 376.25 927.35L350.95 927.05Q346.15 927 341.9 925.25Q337.65 923.5 334.35 920.5Q331.05 917.5 328.95 913.45Q326.8 909.35 326.35 904.65L324.35 885.45Q320 884.15 315.7 882.6Q311.45 881.05 307.3 879.25Q303.15 877.4 299.1 875.35Q295.05 873.25 291.15 870.95L276.3 882.45Q272.5 885.35 268.1 886.65Q263.65 887.9 259.25 887.6Q254.8 887.3 250.6 885.4Q246.4 883.55 243.1 880.15L225.4 862.05Q222.05 858.6 220.25 854.4Q218.5 850.15 218.3 845.7Q218.1 841.25 219.5 836.9Q220.9 832.5 223.9 828.85L235.9 814.05Q233.75 810.2 231.85 806.25Q229.95 802.35 228.3 798.3Q226.65 794.25 225.25 790.1Q223.85 785.95 222.7 781.75L204.1 779.4Q199.35 778.8 195.35 776.55Q191.3 774.35 188.4 771Q185.45 767.6 183.85 763.35Q182.2 759.05 182.3 754.3L182.6 729Q182.6 724.2 184.35 719.95Q186.1 715.7 189.1 712.4Q192.1 709.1 196.15 706.95Q200.25 704.85 205 704.4L222.7 702.5M342.6 680.65Q330.55 685.7 321.5 694.5Q312.45 703.35 307.15 715.25Q301.85 727.15 301.7 740.8Q301.55 754.4 306.6 766.45Q311.6 778.5 320.45 787.55Q329.25 796.6 341.15 801.9Q353.05 807.25 366.7 807.4Q380.3 807.5 392.35 802.45Q404.4 797.45 413.45 788.6Q422.5 779.8 427.8 767.9Q433.15 756 433.3 742.4Q433.4 728.75 428.35 716.7Q423.35 704.65 414.5 695.6Q405.7 686.55 393.8 681.25Q381.9 675.95 368.3 675.8Q354.65 675.65 342.6 680.65" />
</g>
<g id="PathID_6" transform="matrix(0.389978, 0, 0, 0.389978, 4.3, 4.6)" opacity="1">
</g>
</g>
</svg>
