<?xml version="1.0" encoding="utf-8"?>
<svg version="1.1" id="Layer_1"
xmlns="http://www.w3.org/2000/svg"
xmlns:xlink="http://www.w3.org/1999/xlink"
width="400px" height="400px"
xml:space="preserve">
<g id="PathID_1" transform="matrix(0.87908, 0, 0, 0.87908, 71.05, 81)" opacity="1">
<path style="fill:#F5F5F5;fill-opacity:1" d="M225.45 182.65Q227.85 184.35 230.55 185.85Q233.25 187.3 236 188.5Q238.7 189.75 241.05 190.65Q246.55 192.6 251.2 196.15Q255.85 199.7 259.2 204.4Q262.55 209.1 264.45 214.75Q266.35 220.4 266.35 226.65Q266.35 234.6 263.3 241.55Q260.3 248.55 255.1 253.75Q249.9 258.9 242.95 261.9Q235.95 264.95 228.05 264.95Q220.1 264.95 213.1 261.9Q206.15 258.9 200.95 253.7Q195.75 248.5 192.75 241.55Q189.75 234.55 189.75 226.65L189.75 225.55L189.75 224.5L189.85 223.5L189.95 222.5Q190 221.6 189.55 220.15Q189.05 218.65 188.15 216.8Q187.2 215 185.9 212.95Q184.6 210.95 183.05 209L146.65 163.85Q145.05 161.9 143.25 160.55Q141.4 159.25 139.6 158.6Q137.8 157.95 136.2 158.1Q134.6 158.2 133.45 159.2Q132.25 160.15 131.7 161.6Q131.15 163 131.25 164.65Q131.3 166.3 131.95 168Q132.6 169.7 133.9 171.25Q135.15 172.75 136.25 174.35Q137.35 176 138.15 177.45Q139 178.95 139.45 180.15Q139.95 181.35 139.95 182.1Q139.95 182.8 139 183.2Q138.05 183.65 136.45 183.75Q134.85 183.85 132.7 183.65Q130.55 183.45 128.15 182.95L127.6 182.85Q125.15 182.3 122.95 182.75Q120.75 183.25 119.1 184.5Q117.45 185.8 116.45 187.8Q115.4 189.8 115.35 192.3L115.3 193.8Q115.2 196.25 114.35 199.1Q113.55 201.9 112.2 204.6Q110.9 207.25 109.15 209.6Q107.45 212 105.55 213.6L50.9 259.1Q48.95 260.65 46.6 262Q44.3 263.3 41.95 264.25Q39.6 265.15 37.4 265.55Q35.2 266 33.55 265.8Q31.85 265.55 29.8 264.65Q27.75 263.7 25.6 262.3Q23.5 260.85 21.5 259.05Q19.5 257.3 17.95 255.35L7.55 242.35Q5.95 240.4 4.55 238Q3.2 235.65 2.2 233.25Q1.15 230.85 0.55 228.6Q0 226.4 0 224.7Q0 222.95 0.7 220.85Q1.45 218.75 2.7 216.6Q3.95 214.4 5.65 212.35Q7.4 210.3 9.35 208.75L63.9 163.8Q65.8 162.2 68.45 161Q71.05 159.75 73.9 159.05Q76.8 158.3 79.65 158.1Q82.55 157.9 85 158.35Q87.4 158.8 89.55 158.2Q91.65 157.65 93.2 156.3Q94.75 154.95 95.6 152.95Q96.5 150.9 96.45 148.45L96.4 144.7Q96.3 142.15 96.5 139.95Q96.7 137.75 97.05 136.1Q97.4 134.45 97.95 133.5Q98.45 132.6 99.1 132.6Q99.7 132.6 100.85 133.3Q102.05 134.05 103.5 135.3Q104.95 136.6 106.6 138.25Q108.25 139.95 109.85 141.9L110.4 142.55Q111.95 144.45 113.85 145.75Q115.7 147.05 117.5 147.65Q119.35 148.25 120.95 148.1Q122.6 147.95 123.8 147Q124.95 146 125.35 144.35Q125.8 142.75 125.55 140.85Q125.3 138.9 124.35 136.8Q123.45 134.75 121.9 132.8L109.35 117.25Q107.75 115.3 105.65 113.9Q103.6 112.5 101.35 111.8Q99.1 111.1 96.9 111.05Q94.65 111.05 92.8 111.8L88.3 113.5Q85.7 114.45 82.85 115.2Q79.95 116 77.05 116.35Q74.2 116.75 71.75 116.4Q69.4 116 66.75 115.1Q64.15 114.2 61.3 112.5Q58.45 110.8 55.45 108.2Q52.45 105.6 49.45 101.85Q47.85 99.9 46.1 97.25Q44.35 94.6 42.7 91.8Q41.05 88.95 39.65 86.15Q38.2 83.35 37.3 81.05Q35.1 75.6 33.95 70.65Q32.8 65.75 32.45 61.45Q32.1 57.15 32.35 53.45Q32.6 49.75 33.2 46.8Q33.65 44.35 34.95 42.95Q36.3 41.6 38 41.3Q39.7 41 41.6 41.8Q43.5 42.6 45.15 44.5L67.3 69.4Q68.95 71.25 71.2 72.4Q73.45 73.55 75.95 73.9Q78.4 74.3 80.95 73.85Q83.45 73.4 85.6 72.15L85.8 72.05Q87.9 70.75 90.4 68.85Q92.95 67 95.4 64.95Q97.9 62.85 100.15 60.7Q102.45 58.55 104.1 56.7L104.55 56.2Q106.2 54.3 107.05 51.9Q107.9 49.55 107.9 47.05Q107.95 44.55 107.2 42.1Q106.4 39.7 104.85 37.8L83.6 12.05Q82 10.1 81.5 8.1Q81 6.1 81.55 4.45Q82.1 2.8 83.65 1.7Q85.25 0.65 87.75 0.6Q91.5 0.45 96.25 1Q101 1.55 106.5 3.4Q112 5.2 118.15 8.5Q124.3 11.85 130.85 17.3Q136.8 22.15 140.6 26.75Q144.45 31.35 146.65 35.45Q148.8 39.6 149.65 43.25Q150.5 46.9 150.5 49.9Q150.5 52.35 149.6 55.25Q148.75 58.1 147.45 60.9Q146.2 63.7 144.75 66.25L142.2 70.75Q141 72.6 140.55 75Q140.1 77.35 140.4 79.8Q140.65 82.25 141.55 84.6Q142.5 87 144.15 88.9L156.75 103.6Q158.35 105.45 160.5 106.5Q162.65 107.55 165 107.75Q167.3 107.95 169.6 107.25Q171.9 106.55 173.85 104.95L216.2 69.05Q218.1 67.4 219.75 65.65Q221.45 63.85 222.7 62.2Q223.95 60.5 224.65 59.05Q225.4 57.6 225.4 56.7Q225.4 55.75 226.15 54.4Q226.95 53.05 228.35 51.55Q229.75 50.05 231.6 48.5Q233.45 46.95 235.55 45.6L246.8 38.35Q248.9 37 251.3 36.45Q253.7 35.9 256 36.2Q258.3 36.45 260.35 37.45Q262.4 38.5 263.85 40.25Q265.25 42 265.85 44.2Q266.45 46.45 266.25 48.8Q266.05 51.1 265.05 53.35Q264.05 55.6 262.35 57.4L253 67.05Q251.25 68.8 249.3 70.3Q247.4 71.75 245.6 72.8Q243.8 73.8 242.25 74.3Q240.7 74.8 239.75 74.6Q238.7 74.35 237.1 74.75Q235.5 75.2 233.6 76.1Q231.65 77 229.6 78.35Q227.55 79.65 225.65 81.3L183.85 116.6Q181.95 118.2 180.9 120.35Q179.85 122.45 179.65 124.75Q179.45 127.05 180.15 129.35Q180.85 131.65 182.5 133.55L221.45 179.05Q223.05 180.95 225.45 182.65M236.25 245.55Q240 243.95 242.8 241.15Q245.6 238.3 247.25 234.55Q248.85 230.8 248.85 226.55Q248.85 222.25 247.2 218.5Q245.6 214.75 242.8 211.95Q239.95 209.1 236.2 207.5Q232.45 205.9 228.2 205.9Q223.9 205.9 220.15 207.5Q216.4 209.1 213.6 211.95Q210.75 214.75 209.15 218.5Q207.55 222.25 207.55 226.55Q207.55 230.8 209.15 234.55Q210.75 238.3 213.6 241.15Q216.4 243.95 220.15 245.55Q223.9 247.2 228.2 247.2Q232.45 247.2 236.25 245.55" />
</g>
<g id="PathID_2" transform="matrix(0.87908, 0, 0, 0.87908, 71.05, 81)" opacity="1">
</g>
</svg>
